<svg width="243" height="185" viewBox="0 0 243 185" fill="none" xmlns="http://www.w3.org/2000/svg">
<rect x="200.164" y="136.475" width="42.459" height="48.5246" fill="#1F1E2E"/>
<rect y="136.475" width="42.459" height="48.5246" fill="#1F1E2E"/>
<path d="M191.538 71.6941H198.027C218.602 71.6941 232.19 80.8727 238.79 99.2298C241.452 106.772 242.783 115.452 242.783 125.268C242.783 141.795 239.594 155.411 233.216 166.114C225.673 178.648 213.944 184.915 198.027 184.915H191.538V71.6941ZM171.489 184.915C151.025 184.915 137.465 174.544 130.809 153.802C128.092 145.372 126.733 135.861 126.733 125.268C126.733 103.694 132.723 88.4707 144.702 79.5971C151.745 74.3284 160.675 71.6941 171.489 71.6941H177.978V184.915H171.489Z" fill="#1F1E2E"/>
<path d="M64.8047 71.6941H71.2935C91.8691 71.6941 105.457 80.8727 112.056 99.2298C114.718 106.772 116.05 115.452 116.05 125.268C116.05 141.795 112.861 155.411 106.483 166.114C98.9402 178.648 87.2104 184.915 71.2935 184.915H64.8047V71.6941ZM44.756 184.915C24.2914 184.915 10.7315 174.544 4.07633 153.802C1.3588 145.372 0 135.861 0 125.268C0 103.694 5.98965 88.4707 17.9689 79.5971C25.0123 74.3284 33.9414 71.6941 44.756 71.6941H51.2448V184.915H44.756Z" fill="#1F1E2E"/>
<path d="M63.6885 127.377H177.418" stroke="white" stroke-width="18.1967"/>
<path d="M58.6606 71.2705V185M186.038 71.2705V185" stroke="white" stroke-width="18.1967"/>
<rect width="63.6885" height="63.6885" rx="31.8443" fill="#E57C43"/>
<rect x="72.7869" y="136.475" width="42.459" height="48.5246" fill="#1F1E2E"/>
</svg>
